<?xml version="1.0" encoding="utf-8"?>
<!-- Generator: Adobe Illustrator 16.0.0, SVG Export Plug-In . SVG Version: 6.00 Build 0)  -->
<!DOCTYPE svg PUBLIC "-//W3C//DTD SVG 1.1//EN" "http://www.w3.org/Graphics/SVG/1.1/DTD/svg11.dtd">
<svg version="1.1" id="Layer_1" xmlns="http://www.w3.org/2000/svg" xmlns:xlink="http://www.w3.org/1999/xlink" x="0px" y="0px"
	 width="550px" height="65px" viewBox="0 0 550 65" enable-background="new 0 0 550 65" xml:space="preserve">
<g display="none">
	<defs>
		<rect id="SVGID_5_" x="97" y="-435" width="1280" height="720"/>
	</defs>
	<clipPath id="SVGID_2_" display="inline">
		<use xlink:href="#SVGID_5_"  overflow="visible"/>
	</clipPath>
	<g transform="matrix(1 0 0 1 2.670326e-006 -3.203426e-005)" display="inline" clip-path="url(#SVGID_2_)">
		
			<image overflow="visible" width="1280" height="720" xlink:href="../../../../../Desktop/starry_sky_background-wallpaper-1280x720.jpg"  transform="matrix(1.0695 0 0 1.0695 55.3838 -459.9639)">
		</image>
	</g>
</g>
<g opacity="0.8">
	<g>
		<path fill-rule="evenodd" clip-rule="evenodd" fill="#0E182D" d="M272.235,12.961c0.047-1.768,0.792-3.519-0.034-5.308
			c-0.671-1.455-1.608-2.567-3.28-2.594c-1.686-0.026-2.979,0.76-3.721,2.361c-1.139,2.455-0.512,5.134,1.777,7.396
			C269.903,15.942,271.432,15.402,272.235,12.961z"/>
		<path fill-rule="evenodd" clip-rule="evenodd" fill="#0E182D" d="M277.501,43.979c0.591-0.566,0.372-1.278,0.355-1.955
			c-0.262-0.384-0.204-0.847-0.313-1.271c-0.123-1-0.229-2.019-1.695-1.52c-1.038,0.953-0.807,2.36-1.27,3.52
			c-0.196,1.572-0.271,3.138,0.238,4.673c0.203,1.549,0.715,3.026,1.058,4.537c0.316,1.395,0.519,2.936-0.327,4.314
			c-0.451,0.736-0.279,1.328,0.416,1.799c0.506,0.808,0.854,2.177,1.892,0.313c0.378-0.68,1.273-0.242,1.935-0.309
			c-0.021-1.569-1.957-1.429-2.365-2.653c-0.412-1.376-0.26-2.76-0.069-4.144c0.402-1.996,0.478-3.979-0.08-5.976
			C277.163,44.912,276.866,44.32,277.501,43.979z"/>
		<path fill-rule="evenodd" clip-rule="evenodd" fill="#0E182D" d="M264.266,26.948c-0.123,0.024-0.245,0.034-0.37,0.032
			c-1.235,0.091-1.225,1.102-1.157,1.868c0.198,2.279,0.275,4.605,1.417,6.69c1.272,0.617,2.841,0.736,3.609,2.234
			c0.162,0.314,0.673,0.345,0.964-0.087c0.18-0.453,0.219-0.975-0.027-1.344c-1.537-2.302-1.353-4.956-1.611-7.521
			c-0.407-0.97-1.229-1.48-2.12-1.917C264.729,26.829,264.495,26.846,264.266,26.948z"/>
		<path fill-rule="evenodd" clip-rule="evenodd" fill="#0E182D" d="M255.372,39.289c-0.711-0.303-1.424-0.606-2.136-0.909
			c1.735,2.021,3.754,3.87,5.127,6.112c1.361,2.224,3.495,3.618,4.978,5.644c0.434-0.234,0.625-0.62,0.693-1.087
			c-0.697-2.684-3.238-4.028-4.549-6.27c-1.244-1.158-1.67-3.103-3.519-3.685C255.74,39.07,255.542,39.136,255.372,39.289z"/>
		<path fill-rule="evenodd" clip-rule="evenodd" fill="#0E182D" d="M275.964,58.077c-0.839-1.321,0.557-2.267,0.604-3.51
			c0.095-2.567-0.912-4.908-1.061-7.396c-0.49-0.086-0.834,0.149-1.123,0.506c-0.191,1.041-1.447,0.979-1.864,1.792
			c0.04,0.546-0.132,1.111,0.164,1.631c3.03,0.905,3.563,2.482,2.065,5.636c-0.377,0.791-1.231,1.426-1.018,2.634
			C274.652,59.17,274.908,57.835,275.964,58.077z"/>
		<path fill-rule="evenodd" clip-rule="evenodd" fill="#0E182D" d="M263.833,49.159c-0.387,0.213-0.451,0.589-0.492,0.977
			c0.15,0.146,0.299,0.293,0.447,0.439c1.519,1.069,0.322,1.641-0.346,2.47c-0.709,0.879-1.614,1.04-2.578,1.221
			c-1.213,0.835-2.465,1.558-4.021,1.407c-0.514-0.175-0.626,0.06-0.524,0.513l-0.031,0.036c0.706,0.782,1.625,1.074,2.638,1.156
			c0.226-0.006,0.427-0.077,0.603-0.221c1.735-1.327,3.653-2.353,5.522-3.469c2.161-1.29,0.712-2.757-0.265-4.067
			C264.595,49.206,264.337,48.93,263.833,49.159z"/>
		<path fill-rule="evenodd" clip-rule="evenodd" fill="#0E182D" d="M250.182,29.4c1.893-1.255,4.08-0.515,6.101-0.9
			C252.634,26.609,251.458,26.782,250.182,29.4z"/>
		<path fill-rule="evenodd" clip-rule="evenodd" fill="#0E182D" d="M277.393,55.729c0.053,1.544,1.616,1.549,2.397,2.352
			c0.788,0.637,1.118-0.546,1.772-0.446c-0.968-1.108-2.337-1.451-3.649-1.899C277.742,55.534,277.568,55.522,277.393,55.729z"/>
		<path fill-rule="evenodd" clip-rule="evenodd" fill="#0E182D" d="M260.864,54.266c1.51,0.405,2.536-0.509,3.411-1.45
			c0.737-0.795,1.033-1.791-0.487-2.24c1.002,2.078-1.097,2.272-1.97,3.196C261.586,54.018,261.187,54.105,260.864,54.266z"/>
		<path fill-rule="evenodd" clip-rule="evenodd" fill="#0E182D" d="M279.778,26.509c-0.286,0.216-0.573,0.433-0.859,0.648
			c-0.111,0.127-0.146,0.251-0.103,0.372c0.043,0.119,0.084,0.179,0.124,0.179c0.302,0.168,0.62,0.189,0.95,0.115
			c1.001-0.4,2.013-0.788,2.667-1.726c0.032-0.195,0.064-0.392,0.096-0.587l0.052-0.192c-0.188-0.012-0.375-0.021-0.563-0.032
			C281.056,25.115,280.39,25.759,279.778,26.509z"/>
		<path fill-rule="evenodd" clip-rule="evenodd" fill="#0E182D" d="M272.282,55.647c-0.018,0.613-0.002,1.24-0.626,1.62
			c0.139,0.654,0.183,1.347,1.11,2.133C272.655,57.926,273.206,56.758,272.282,55.647z"/>
		<path fill-rule="evenodd" clip-rule="evenodd" fill="#0E182D" d="M283.934,59.029c0.338,0.474,0.675,0.946,1.015,1.42
			c0.2-0.502,0.583-0.818,1.059-1.041C285.36,59.04,284.884,57.734,283.934,59.029z"/>
		<path fill-rule="evenodd" clip-rule="evenodd" fill="#0E182D" d="M256.319,56.186c0.175-0.171,0.35-0.341,0.524-0.513
			c-1.011-0.324-2.02-0.648-3.029-0.973C254.379,55.799,255.33,56.03,256.319,56.186z"/>
		<path fill-rule="evenodd" clip-rule="evenodd" fill="#0E182D" d="M280.726,30.833c-0.514,0.149-1.027,0.432-1.539,0.427
			c-2.31-0.018-3.536,1.356-3.072,3.703c0.183,0.929,0.647,1.791-0.424,2.459c-0.514,0.635-0.126,1.076,0.324,1.504
			c1.169,0.05,2.05-0.413,2.604-1.458c-0.014-1.636-0.012-3.238,1.645-4.271c0.422-0.262,0.755-0.799,0.488-1.418
			C280.742,31.463,280.733,31.148,280.726,30.833z"/>
		<path fill-rule="evenodd" clip-rule="evenodd" fill="#0E182D" d="M280.751,31.779c-0.341,0.409-0.599,0.991-1.035,1.198
			c-2.109,1.002-2.01,2.611-1.367,4.423c0.298,0.14,0.523,0.055,0.747-0.178c0.132-0.139,0.06-0.465,0.382-0.425
			c-0.063,0.21-0.052,0.421-0.005,0.639c0.081,0.207,0.217,0.356,0.405,0.457c1.525-0.946,2.74-4.021,2.189-5.474
			C281.817,31.761,281.272,31.819,280.751,31.779z"/>
		<path fill-rule="evenodd" clip-rule="evenodd" fill="#0E182D" d="M277.501,43.979c-0.05-0.225-0.035-0.59-0.162-0.649
			c-0.568-0.264-0.275,0.281-0.276,0.405c-0.036,2.437-0.046,4.873-0.061,7.311c0.489,0.25,0.636-0.145,0.833-0.442
			c0.956-2.211,2.591-4.118,2.932-6.602c-0.438,0.471-0.874,0.942-1.312,1.413c-1.004,0.662-1.644,1.508-1.431,2.759
			c-0.298-0.892,0.394-2-0.484-2.829C277.527,44.89,277.515,44.435,277.501,43.979z"/>
		<path fill-rule="evenodd" clip-rule="evenodd" fill="#0E182D" d="M279.771,27.571c0.011,0.666,0.338,1.129,0.922,1.424
			c2.313,0.125,1.501-1.765,1.865-2.896C281.517,26.377,280.558,26.813,279.771,27.571z"/>
		<path fill-rule="evenodd" clip-rule="evenodd" fill="#0E182D" d="M277.54,45.345c-0.045,0.984-0.09,1.969-0.147,3.228
			c1.331-0.863,1.452-2.172,2.063-3.157C278.815,45.44,278.195,44.938,277.54,45.345z"/>
		<path fill-rule="evenodd" clip-rule="evenodd" fill="#0E182D" d="M279.878,37.894c-0.043-0.147-0.076-0.299-0.098-0.453
			c-2.16,0.314-2.651,1.764-2.49,3.658c0.096,0.366,0.152,0.757,0.568,0.926C277.956,40.366,278.794,39.069,279.878,37.894z"/>
		<path fill-rule="evenodd" clip-rule="evenodd" fill="#0E182D" d="M268.99,12.616c0.781-0.291,0.928-0.934,0.931-1.665
			c0.001-0.861-0.016-1.85-0.9-2.18c-1.068-0.4-1.691,0.342-2.003,1.331C266.874,11.569,267.966,12.066,268.99,12.616z"/>
		<path fill-rule="evenodd" clip-rule="evenodd" fill="#0E182D" d="M268.99,12.616c-0.657-0.838-1.315-1.676-1.973-2.514
			C266.466,12.398,266.853,12.892,268.99,12.616z"/>
		<path fill-rule="evenodd" clip-rule="evenodd" fill="#0E182D" d="M277.835,50.604c-0.277,0.147-0.556,0.294-0.833,0.442
			c0.104,1.563-0.386,3.176,0.391,4.684c0.173,0.002,0.347,0.004,0.521,0.006C276.988,54.038,277.503,52.319,277.835,50.604z"/>
		<path fill-rule="evenodd" clip-rule="evenodd" fill="#0E182D" d="M278.054,13.862c0.874,0.014,1.287-0.434,1.315-1.279
			c0.033-0.911-0.408-1.537-1.28-1.675c-0.933-0.148-1.2,0.492-1.168,1.307C276.95,13.004,276.916,13.839,278.054,13.862z"/>
		<path fill-rule="evenodd" clip-rule="evenodd" fill="#0E182D" d="M274.182,13.947c0.024,0.149,0.046,0.301,0.065,0.451
			c-0.077,0.891,0.314,1.392,1.217,1.469c0.206-0.201,0.411-0.401,0.616-0.602c-0.707-0.431-0.917-1.228-1.362-1.851
			C274.538,13.593,274.36,13.77,274.182,13.947z"/>
		<path fill-rule="evenodd" clip-rule="evenodd" fill="#0E182D" d="M290.58,27.011c-2.006,1.107-3.926,2.237-4.193,4.481
			c-0.168,0.151-0.313,0.315-0.443,0.489c-0.071-2.534-1.197-4.688-3.29-6.471c-0.188,0.113-0.331,0.269-0.436,0.46
			c-0.285,1.242-0.751,2.383-1.805,3.193c-0.254,0.534-0.301,1.097-0.248,1.674c0.04,0.345,0.146,0.668,0.326,0.964
			c1.438,1.963,1.106,3.855-1.033,5.84c-1.373,1.109-1.992,2.594-2.162,4.306c-0.021,0.683-0.051,1.366-0.254,2.029
			c-0.072,0.451-0.058,0.894,0.182,1.302c0.641,0.464,1.396,0.423,2.134,0.483c0.201-0.039,0.375-0.111,0.535-0.201
			c-0.961,1.64-1.975,3.252-2.603,5.067c-0.513,1.719-0.921,3.434,0.174,5.096c1.141,1.118,2.666,1.414,4.098,1.911
			c0.914,1.241,1.815,2.49,2.747,3.715c0.238,0.313,0.68,0.573,0.934,0.148c0.127-0.216-0.183-0.69-0.294-1.049
			c-0.279-0.516-0.117-1.347-1.015-1.42c-0.02-0.022-0.037-0.045-0.057-0.067c0.762-0.341,1.396,0.489,2.13,0.446
			c0.693,0.01,1.242,0.712,2.22,0.343c-1.765-1.43-0.999-2.236,0.863-2.834c-3.054,0.019-5.288-1.274-7.239-3.224
			c-1.774-1.771-1.775-2.676,0.299-4.008c3.435-2.206,6.598-4.688,8.962-8.07c0.139-0.198,0.314-0.377,0.455-0.572
			c0.729-0.691,1.334-1.475,1.997-2.228c2.275-2.087,3.489-4.788,3.505-8.058C297.086,26.618,294.162,25.033,290.58,27.011z"/>
		<path fill-rule="evenodd" clip-rule="evenodd" fill="#0E182D" d="M277.29,41.099c0.211-1.641,1.061-2.848,2.49-3.658
			c-0.162-0.811,0.951-1.229,0.666-2.137c-1.531-0.097-1.301,1.521-2.098,2.097c-0.725,0.458-1.451,0.916-2.175,1.374
			c-0.252,0.175-0.251,0.349,0.001,0.522C277.308,39.426,276.694,40.637,277.29,41.099z"/>
		<path fill-rule="evenodd" clip-rule="evenodd" fill="#0E182D" d="M275.05,42.484c-0.099-0.12-0.197-0.241-0.296-0.362
			c-1.384,1.869-1.274,3.758-0.069,5.658c0.275-0.202,0.549-0.404,0.822-0.607C274.891,45.654,275.203,44.047,275.05,42.484z"/>
		<path fill-rule="evenodd" clip-rule="evenodd" fill="#0E182D" d="M266.706,28.558c0.264,0.139,0.529,0.278,0.794,0.417
			c0.315-0.331,0.838-0.153,1.158-0.473c0.352-0.686,0.079-1.278-0.276-1.859c-0.218-0.272-0.488-0.446-0.851-0.441
			c-0.788-0.156-1.576-0.314-2.364-0.47c-0.137,0.441-0.273,0.885-0.41,1.326C265.1,27.955,266.019,28.104,266.706,28.558z"/>
		<path fill-rule="evenodd" clip-rule="evenodd" fill="#0E182D" d="M268.177,26.598c0.143,0.615,0.284,1.229,0.426,1.845
			c0.804,0.418,1.616,0.824,2.282,1.458l-0.019-0.021c1.646,1.516,3.031,0.796,4.354-0.495c0.575-1.081,1.796-0.896,2.688-1.355
			c0.317-0.173,0.635-0.346,0.952-0.519c-0.002-0.122,0.018-0.239,0.059-0.354c0.123-1.172,0.246-2.346,0.369-3.519
			c-0.87,0.559-1.023,1.95-2.331,2c-0.102-0.009-0.204-0.018-0.306-0.029c-0.542,0.018-1.025,0.185-1.433,0.551
			c-0.225,0.206-0.362,0.524-0.62,0.655c-0.598,0.305-0.672,1.414-1.786,0.974c-1.021-0.405,0.624-1.257-0.377-1.534
			c-1.071-0.43-2.177-0.292-3.279-0.218C268.769,26.117,268.429,26.281,268.177,26.598z"/>
		<path fill-rule="evenodd" clip-rule="evenodd" fill="#0E182D" d="M267.579,48.267c0.108,0.055,0.224,0.09,0.344,0.106
			c0.051-0.223,0.103-0.446,0.154-0.67c-0.649-0.914-1.299-1.829-1.949-2.743c-0.16,0.172-0.268,0.371-0.323,0.601
			C265.858,46.815,266.307,47.812,267.579,48.267z"/>
		<path fill-rule="evenodd" clip-rule="evenodd" fill="#0E182D" d="M275.464,15.867c-0.406-0.49-0.813-0.979-1.217-1.469
			c-0.576,0.303-1.321,0.362-1.659,1.212c1.042,0.226,2.04,0.44,3.039,0.655C275.587,16.127,275.532,15.994,275.464,15.867z"/>
		<path fill-rule="evenodd" clip-rule="evenodd" fill="#0E182D" d="M275.656,29.01c0.278,0,0.558,0,0.837,0
			c0.472-0.327,0.942-0.654,1.415-0.98c-0.977,0.354-2.463-1.017-2.981,0.883C275.14,29.159,275.384,29.191,275.656,29.01z"/>
		<path fill-rule="evenodd" clip-rule="evenodd" fill="#0E182D" d="M283.143,17.609c-0.356-0.363-0.746-0.698-1.152-1.008
			c-0.318-0.405-0.814-0.611-1.257-0.88c-0.001,0,0.001-0.001,0.001-0.001c-0.297-0.285-0.593-0.571-0.891-0.858
			c1.122-1.037,1.482-2.375,1.275-3.811c-0.256-1.771-2.164-3.092-3.976-2.745c-1.877,0.361-2.681,1.683-2.68,3.523
			c0.001,0.538,0.124,1.076,0.191,1.615c-0.72-0.599-1.638-0.201-2.42-0.484c-1.154,2.31-3.22,2.042-5.257,1.855
			c0.04,0.178,0.081,0.356,0.123,0.534c-0.146,0.026-0.298,0.019-0.452,0.002c-0.031-0.006-0.067-0.005-0.101-0.01
			c-0.263-0.037-0.529-0.093-0.787-0.101c-0.415-0.038-0.854,0.038-1.271,0.219c0.643-0.278,0.197-0.094,0.037-0.047
			c-0.162,0.047-0.327,0.087-0.491,0.13c-0.415,0.11-0.827,0.268-1.206,0.47c-0.164,0.088-0.311,0.19-0.443,0.302
			c-0.953,0.586-1.68,1.454-1.88,2.709c-0.03,0.191-0.046,0.38-0.05,0.566c-0.068,0.608-0.02,1.245,0.036,1.883
			c0.005,0.006,0.009,0.012,0.013,0.018c0.032,0.558,0.287,1.093,0.793,1.448c0.832,1.442,2.421,2.37,2.965,4.01
			c0.165,0.036,0.329,0.071,0.493,0.107c0.527-0.175,0.741-0.515,0.73-0.972c0.552,0.532,1.197,0.701,2.002,0.232
			c0.022-0.042,0.028-0.075,0.046-0.115c0.214,0.132,0.426,0.265,0.642,0.396c0.316-0.016,0.631-0.032,0.946-0.048
			c0.11-0.262,0.813-0.124,0.832-0.447c1.049,0.001,2.077,0.212,3.112,0.363c1.307-0.23,2.554-0.766,3.903-0.796
			c0.017,0.025,0.034,0.05,0.051,0.076c0.809,0.216,1.227,0.012,1.496-0.351c-0.097,0.545-0.128,1.091,0.192,1.637
			c0.514,0.351,0.886,0.064,1.246-0.271c0.067-0.144,0.119-0.291,0.179-0.437c0.645-0.334,1.289-0.667,1.934-1
			c0.213,0.098,0.413,0.095,0.624-0.006c0.439-0.421,1.308-0.84,1.308-1.259c0-0.001,0-0.001,0-0.002
			C286,21.657,285.741,19.271,283.143,17.609z M274.28,14.521c0.024-0.085,0.023-0.165,0.018-0.244
			c0.017-0.003,0.03-0.012,0.046-0.015c0.148-0.099,0.265-0.212,0.334-0.346c0.179,0.669,0.539,1.17,1.063,1.523
			c-0.17,0.125-0.277,0.303-0.314,0.539C274.932,15.581,273.779,15.692,274.28,14.521z"/>
		<path fill-rule="evenodd" clip-rule="evenodd" fill="#0E182D" d="M265.7,45.378c-0.781,0.427-1.363,1.001-1.445,1.947
			c0.322,0.299,0.646,0.597,0.971,0.895c0.787-0.098,1.551,0.93,2.354,0.046c-0.324-0.97-1.326-1.568-1.453-2.646
			C266.129,45.283,265.986,45.202,265.7,45.378z"/>
		<path fill-rule="evenodd" clip-rule="evenodd" fill="#0E182D" d="M270.862,30.397c1.547,0.846,2.911,0.335,4.221-0.574
			c0.191-0.271,0.381-0.542,0.572-0.813c-0.242-0.032-0.484-0.065-0.729-0.098c-1.115,1.318-2.523,1.411-4.061,0.968
			C270.864,30.053,270.864,30.225,270.862,30.397z"/>
		<path fill-rule="evenodd" clip-rule="evenodd" fill="#0E182D" d="M270.885,29.9c-0.353-1.127-0.89-1.962-2.283-1.458
			c-0.421,0.063-0.859,0.093-1.101,0.532C268.629,29.283,269.756,29.591,270.885,29.9z"/>
		<path fill-rule="evenodd" clip-rule="evenodd" fill="#0E182D" d="M272.692,26.734c-2.103,1.478,1.299,1.319,0.514,2.489
			c0.631-1.289,2.09-1.667,2.337-2.968c-0.142-0.214-0.341-0.311-0.597-0.291C274.215,26.282,273.28,25.999,272.692,26.734z"/>
		<path fill-rule="evenodd" clip-rule="evenodd" fill="#0E182D" d="M272.692,26.734c0.766-0.327,1.74,0.202,2.394-0.58
			c-0.684-0.434-1.378-0.27-2.074-0.042c-1.102-0.08-2.116-0.764-3.272-0.471c0.264,0.621-0.658,0.438-0.616,0.908
			C270.313,26.611,271.503,26.673,272.692,26.734z"/>
		<path fill-rule="evenodd" clip-rule="evenodd" fill="#0E182D" d="M273.012,26.112c0.691,0.014,1.384,0.027,2.075,0.042
			c0.151,0.034,0.304,0.068,0.456,0.102c0.508-0.143,1.122-0.021,1.457-0.589C275.589,25.084,274.271,25.343,273.012,26.112z"/>
		<path fill-rule="evenodd" clip-rule="evenodd" fill="#0E182D" d="M280.693,28.995c-0.022-0.659-0.337-1.13-0.922-1.424
			c-0.305-0.02-0.608-0.04-0.911-0.061c-0.435-0.05-0.828,0.081-1.214,0.263c-0.535,0.268-1.021,0.604-1.441,1.032
			c-0.212-0.095-0.443-0.089-0.693,0.003c-0.312,0.348-0.657,0.673-0.845,1.114l-0.012,0.044c-1.146,0.377-2.304,0.658-3.524,0.472
			c0.006-0.038,0.011-0.075,0.017-0.113c-0.025-0.223-0.101-0.426-0.229-0.61c-0.845-0.763-1.943-0.931-2.97-1.271
			c-0.425-0.082-0.854-0.186-1.243,0.113c-0.701,3.358,0.588,6.33,1.811,9.313c-1.151-0.943-1.387-3.363-3.763-2.331
			c-0.704-2.811-2.094-5.554-0.858-8.56c-1.256-0.123-2.681,1.019-2.84,2.459c-0.152,1.362-0.105,2.747-0.146,4.121
			c-0.115,0-0.226,0.022-0.33,0.067c-0.037-0.072-0.073-0.146-0.11-0.218c-0.085-0.466-0.202-0.922-0.363-1.357
			c-0.022-0.078-0.051-0.153-0.091-0.225c-0.182-0.438-0.417-0.845-0.714-1.21c-0.643-1.133-1.932-1.507-3.019-2.118
			c-2.104-0.176-4.368-1.44-6.101,0.9c-0.629,3.554-0.113,6.717,3.055,8.979c0.741,0.272,0.992,1.499,2.091,1.078
			c0.052-0.058,0.083-0.113,0.125-0.17c0.13-0.001,0.261-0.002,0.391-0.003v0.001c1.479,0.923,1.873,2.788,3.283,3.77
			c1.568,2.034,3.138,4.069,4.707,6.104c0.308,0.149,0.613,0.297,0.921,0.446c0.511,3.214,0.482,3.224-2.726,4.885
			c-1.127,0.584-1.79,1.658-2.609,2.563c-0.019,0.041-0.017,0.084-0.031,0.125c-0.078,0.009-0.158,0.01-0.233,0.036
			c-0.778-0.841-1.904-0.679-2.866-0.993c0.158,0.764,0.314,1.526,0.471,2.291c-0.486,0.13-1.142-0.023-1.276,0.771
			c1.003,0.732,1.911,0.068,2.837-0.237c0.541,0.207,0.988,0.687,1.302,1.173c0.002,0.084,0.004,0.169,0.006,0.253
			c-0.269,0.356-0.539,0.714-0.827,1.098c1.243,0.049,1.743-0.089,3.09-1.813c0.89-0.694,1.851-1.296,2.714-2.028
			c0.07-0.06,0.131-0.133,0.198-0.195c0.136,0.024,0.278,0.034,0.448,0.029c0.08-0.002,0.146-0.023,0.206-0.053
			c0.806,0.104,1.587-0.15,2.358-0.578c0.032-0.018,0.049-0.043,0.074-0.063c0.016,0.011,0.03,0.022,0.046,0.034
			c0.024,0.02,0.051,0.034,0.071,0.058c0.011,0.012,0.018-0.022,0.027-0.009c0.023,0.031,0.048,0.049,0.064,0.049h0.017
			c0.003,0,0.009,0.089,0.013,0.111c0.011,0.033,0.015,0.092,0.02,0.127c0.237,1.336,0.801,1.619,1.909,0.505
			c0.401-0.403,0.882-0.943,1.602-0.481c1.287-0.123,0.853-0.909,0.625-1.617c-0.938-1.526,0.074-3.05,0.008-4.575
			c0.129,0.021,0.261,0.031,0.394,0.03c0.012-0.27,0.024-0.538,0.037-0.808c0.125-0.358,0.163-0.729,0.098-1.116
			c1.655,0.973,1.807-0.147,1.866-1.396c0.022-1.811,0.044-3.623,0.066-5.435c0.091,0.057,0.089,0.117,0.212,0.14
			c0.848-0.896,1.037-2.229,1.037-3.188v-0.522c0-0.403-0.201-0.807-0.345-1.21c1.059-0.233,1.198-1.029,1.19-1.939
			c-0.023-3.06,0.009-3.069,2.832-3.901c0.501-0.148,0.771-0.509,1.037-0.891C280.704,30.221,280.703,29.607,280.693,28.995z
			 M265.615,47.996c-0.006-0.008-0.014-0.014-0.02-0.021c-0.316-0.302-0.621-0.614-0.926-0.927c0.536-0.409,0.884-0.972,1.136-1.61
			l0.255,0.144c0.504,0.834,0.799,1.859,1.95,2.104c-0.044,0.024-0.091,0.04-0.133,0.072c-0.067,0.093-0.097,0.203-0.144,0.306
			c-0.051-0.031-0.096-0.068-0.169-0.079C266.926,48.085,266.242,47.763,265.615,47.996z M268.801,54.018
			c-0.107,0.201-0.225,0.399-0.352,0.591c-0.703,0.592-1.434,1.059-2.267,1.364c0.347-0.476,0.663-0.968,0.965-1.454
			c0.097-0.067,0.192-0.139,0.289-0.201c0.09-0.223,0.171-0.448,0.239-0.677c-0.021,0.01-0.041,0.02-0.061,0.029
			c0.242-0.759,0.387-1.523,0.414-2.328c0.284,0.257,0.61,0.474,0.967,0.575C268.932,52.628,268.975,53.335,268.801,54.018z"/>
	</g>
</g>
</svg>
