<?xml version="1.0" encoding="utf-8"?>
<!-- Generator: Adobe Illustrator 16.0.0, SVG Export Plug-In . SVG Version: 6.00 Build 0)  -->
<!DOCTYPE svg PUBLIC "-//W3C//DTD SVG 1.1 Tiny//EN" "http://www.w3.org/Graphics/SVG/1.1/DTD/svg11-tiny.dtd">
<svg version="1.1" baseProfile="tiny" id="Layer_1" xmlns="http://www.w3.org/2000/svg" xmlns:xlink="http://www.w3.org/1999/xlink"
	 x="0px" y="0px" width="45.25px" height="77.25px" viewBox="0 0 45.25 77.25" xml:space="preserve">
<g>
	<path fill="#EFC233" d="M11.069,36.895c-3.003,1.522-4.287,4.757-4.44,7.596c-2.598,0.157-3.667,0-3.667,0
		s-2.136-15.287,9.019-15.789C23.135,28.2,11.069,36.895,11.069,36.895z"/>
	<path fill="#EFC233" d="M34.526,36.895c3.003,1.522,4.288,4.757,4.44,7.596c2.598,0.157,3.667,0,3.667,0s2.136-15.287-9.019-15.789
		C22.461,28.2,34.526,36.895,34.526,36.895z"/>
	<g>
		<path fill="#FFFFFF" d="M30.453,16.672c-0.391-0.984-0.796-1.906-0.797-1.906c-3.21,1-10.389,1.191-13.281-0.141
			c0,0-0.344,0.672-0.781,1.922C17.406,18.5,27.453,18.152,30.453,16.672z"/>
		<path fill="#FFFFFF" d="M34.771,38.962c-3.919,1.59-12.47,1.767-18.365,1.069c-2.167-0.257-4.004-0.352-5.078-0.938
			c0,0-0.344-0.093-0.344-0.094c0,0-0.047,1.703,0.235,2.96c5.25,2.281,17.516,2.305,23.425,0.043
			C34.781,41.141,34.8,39.274,34.771,38.962z"/>
		<path fill="#94CFE1" d="M29.671,14.779c-1.513-3.48-3.415-6.778-5.779-9.603c-0.622-0.743-1.169-0.796-2.234,0.366
			c-1.899,2.074-3.75,5.361-5.364,9.236C19.187,16.11,26.461,16.125,29.671,14.779z"/>
		<path fill="#07ADAD" d="M34.783,38.987c-0.097-6.061-1.315-14.683-4.446-22.604c-3.53,1.48-11.493,1.443-14.676-0.021
			c-2.74,7.125-4.653,15.833-4.683,22.667C15.718,41.211,29.417,41.165,34.783,38.987z"/>
		<path fill="#94CFE1" d="M11.094,41.135c0.117,1.308,0.324,2.511,0.633,3.574c1.464,5.033,5.491,5.303,11.339,5.303
			c7.791,0,9.492-1.547,10.902-4.494c0.375-0.784,0.645-2.284,0.76-4.287C28.813,43.496,16.349,43.418,11.094,41.135z"/>
	</g>
	<ellipse fill="#26667F" stroke="#FFFFFF" stroke-miterlimit="10" cx="22.9" cy="29.076" rx="6.625" ry="6.506"/>
	<path fill="#F08C2E" d="M13.833,50.822c4.188,1.842,15.051,1.572,18.123,0c0,0,1.51,4.539-0.274,14.786
		c-1.579-3.843-2.15-4.028-3.707-6c-0.343,5.19-2.567,13.011-4.97,15.033c-1.071-3.978-3.268-10.382-3.268-14.764
		c-2.06,1.349-3.023,2.951-4.334,5.663C14.51,62.85,12.666,55.967,13.833,50.822z"/>
	<path fill="#E94D24" d="M15.549,53.338c2.815,1.416,13.729,1.349,14.965,0c0.19,1.212,0.136,3.393,0,4.854
		c-0.777-0.851-2.265-2.338-3.768-1.229c-0.931,0.687-1.16,1.993-1.32,3.05c-0.354,2.33-0.451,5.181-1.639,7.279
		c-0.724-1.475-1.339-3.257-1.583-4.393c-0.251-1.168-0.554-2.331-0.733-3.512c-0.189-1.242-0.588-2.495-2.021-2.745
		c-1.366-0.238-2.719,0.365-3.421,1.55C15.305,56.418,15.549,53.338,15.549,53.338z"/>
</g>
</svg>
